<?xml version="1.0" encoding="UTF-8" standalone="no"?>
<!-- Created with Inkscape (http://www.inkscape.org/) -->

<svg
   width="203mm"
   height="237mm"
   viewBox="0 0 203 237"
   version="1.1"
   id="svg1"
   xml:space="preserve"
   inkscape:version="1.3 (0e150ed6c4, 2023-07-21)"
   sodipodi:docname="discs.svg"
   inkscape:export-filename="discs.svg"
   inkscape:export-xdpi="25.4"
   inkscape:export-ydpi="25.4"
   xmlns:inkscape="http://www.inkscape.org/namespaces/inkscape"
   xmlns:sodipodi="http://sodipodi.sourceforge.net/DTD/sodipodi-0.dtd"
   xmlns="http://www.w3.org/2000/svg"
   xmlns:svg="http://www.w3.org/2000/svg"><sodipodi:namedview
     id="namedview1"
     pagecolor="#ffffff"
     bordercolor="#666666"
     borderopacity="1.0"
     inkscape:showpageshadow="2"
     inkscape:pageopacity="0.0"
     inkscape:pagecheckerboard="0"
     inkscape:deskcolor="#d1d1d1"
     inkscape:document-units="mm"
     inkscape:zoom="1.4142136"
     inkscape:cx="453.25545"
     inkscape:cy="400.22244"
     inkscape:window-width="3360"
     inkscape:window-height="1780"
     inkscape:window-x="-12"
     inkscape:window-y="681"
     inkscape:window-maximized="1"
     inkscape:current-layer="layer2" /><defs
     id="defs1" /><g
     inkscape:groupmode="layer"
     id="layer2"
     inkscape:label="Layer 2"><ellipse
       style="fill:#000000;fill-opacity:0;stroke:#000000;stroke-width:1.39073;stroke-linejoin:round;stroke-dasharray:none"
       id="path2"
       cx="145.58469"
       cy="127.87307"
       rx="52.788685"
       ry="49.640903"
       transform="matrix(0.99946187,0.03280195,0.02825868,0.99960064,0,0)" /><path
       style="fill:#000000;fill-opacity:0;stroke:#000000;stroke-width:1.32547;stroke-linejoin:round;stroke-dasharray:none"
       id="path2-0"
       transform="matrix(0.9994844,0.03210829,-0.04133515,0.99914534,0,0)"
       sodipodi:type="arc"
       sodipodi:cx="108.61262"
       sodipodi:cy="97.624619"
       sodipodi:rx="50.840439"
       sodipodi:ry="46.819153"
       sodipodi:start="1.6468456"
       sodipodi:end="5.836265"
       sodipodi:arc-type="arc"
       d="M 104.74996,144.30845 A 50.840439,46.819153 0 0 1 58.017484,102.21832 50.840439,46.819153 0 0 1 94.924665,52.534267 50.840439,46.819153 0 0 1 154.45963,77.389831"
       sodipodi:open="true" /><path
       style="fill:#000000;fill-opacity:0;stroke:#000000;stroke-width:1.44777;stroke-linejoin:round;stroke-dasharray:none"
       id="path3"
       transform="matrix(0.99941851,0.03409749,0,1,0,0)"
       sodipodi:type="arc"
       sodipodi:cx="50.380772"
       sodipodi:cy="101.44256"
       sodipodi:rx="49.624668"
       sodipodi:ry="46.981289"
       sodipodi:start="0.93765615"
       sodipodi:end="5.2186993"
       sodipodi:arc-type="arc"
       d="M 79.742655,139.31763 A 49.624668,46.981289 0 0 1 14.994672,134.38058 49.624668,46.981289 0 0 1 10.878148,73.00667 49.624668,46.981289 0 0 1 74.446442,60.355552"
       sodipodi:open="true" /><path
       style="fill:#000000;fill-opacity:0;stroke:#000000;stroke-width:1.44777;stroke-linejoin:round;stroke-dasharray:none"
       id="path4"
       transform="matrix(0.99941851,0.03409749,0,1,0,0)"
       sodipodi:type="arc"
       sodipodi:cx="50.380772"
       sodipodi:cy="101.44256"
       sodipodi:rx="49.624668"
       sodipodi:ry="46.981289"
       sodipodi:start="5.8643863"
       sodipodi:end="0.22633837"
       sodipodi:arc-type="arc"
       d="m 95.716777,82.336981 a 49.624668,46.981289 0 0 1 3.022967,29.648689"
       sodipodi:open="true" /><path
       style="fill:#000000;fill-opacity:0;stroke:#000000;stroke-width:1.32547;stroke-linejoin:round;stroke-dasharray:none"
       id="path5"
       transform="matrix(0.9994844,0.03210829,-0.04133515,0.99914534,0,0)"
       sodipodi:type="arc"
       sodipodi:cx="108.61262"
       sodipodi:cy="97.624619"
       sodipodi:rx="50.840439"
       sodipodi:ry="46.819153"
       sodipodi:start="0.24410281"
       sodipodi:end="0.96527928"
       sodipodi:arc-type="arc"
       d="M 157.94587,108.94014 A 50.840439,46.819153 0 0 1 137.55035,136.1197"
       sodipodi:open="true" /><ellipse
       style="fill:#000000;fill-opacity:0;stroke:#000000;stroke-width:1.00107003;stroke-linejoin:round;stroke-dasharray:none"
       id="path6"
       cx="140.22171"
       cy="129.78989"
       rx="45.062832"
       ry="40.286339"
       transform="matrix(1,0,0.06533528,0.99786337,0,0)" /><ellipse
       style="fill:#000000;fill-opacity:0;stroke:#000000;stroke-width:0.495726;stroke-linejoin:round;stroke-dasharray:none"
       id="path7"
       cx="133.254"
       cy="134.27505"
       rx="27.625048"
       ry="24.904961"
       transform="matrix(0.99939129,-0.03488635,0.11876353,0.99292257,0,0)" /><ellipse
       style="fill:#000000;fill-opacity:0;stroke:#000000;stroke-width:1.00120493;stroke-linejoin:round;stroke-dasharray:none"
       id="path8"
       cx="139.8089"
       cy="129.0387"
       rx="22.826303"
       ry="20.73031"
       transform="matrix(1,0,0.06931982,0.99759449,0,0)" /><path
       style="fill:#000000;fill-opacity:0;stroke:#000000;stroke-width:0.532574;stroke-linejoin:round;stroke-dasharray:none"
       id="path9"
       transform="matrix(0.99993878,0.01106493,0.12149913,0.99259154,0,0)"
       sodipodi:type="arc"
       sodipodi:cx="132.10822"
       sodipodi:cy="130.85245"
       sodipodi:rx="22.351467"
       sodipodi:ry="18.80566"
       sodipodi:start="3.3679573"
       sodipodi:end="0.27744982"
       sodipodi:arc-type="arc"
       d="m 110.32696,126.63177 a 22.351467,18.80566 0 0 1 15.59988,-13.85153 22.351467,18.80566 0 0 1 21.96446,4.75629 22.351467,18.80566 0 0 1 5.7136,18.46686"
       sodipodi:open="true" /><path
       style="fill:#000000;fill-opacity:0;stroke:#000000;stroke-width:1.00008;stroke-linejoin:round;stroke-dasharray:none"
       id="path10"
       transform="matrix(1,0,0.01745241,0.99984769,0,0)"
       sodipodi:type="arc"
       sodipodi:cx="48.668373"
       sodipodi:cy="100.38834"
       sodipodi:rx="41.643002"
       sodipodi:ry="37.345818"
       sodipodi:start="1.1586495"
       sodipodi:end="5.203264"
       sodipodi:arc-type="arc"
       d="M 65.349615,134.60693 A 41.643002,37.345818 0 0 1 15.136308,122.53317 41.643002,37.345818 0 0 1 17.182194,75.947048 41.643002,37.345818 0 0 1 68.298791,67.452294"
       sodipodi:open="true" /><path
       style="fill:#000000;fill-opacity:0;stroke:#000000;stroke-width:1.00008;stroke-linejoin:round;stroke-dasharray:none"
       id="path11"
       transform="matrix(1,0,0.01745241,0.99984769,0,0)"
       sodipodi:type="arc"
       sodipodi:cx="48.668373"
       sodipodi:cy="100.38834"
       sodipodi:rx="41.643002"
       sodipodi:ry="37.345818"
       sodipodi:start="5.9520209"
       sodipodi:end="0.34383407"
       sodipodi:arc-type="arc"
       d="M 88.048677,88.245561 A 41.643002,37.345818 0 0 1 87.873973,112.97759"
       sodipodi:open="true" /><path
       style="fill:#000000;fill-opacity:0;stroke:#000000;stroke-width:0.499537;stroke-linejoin:round;stroke-dasharray:none"
       id="path12"
       transform="matrix(1,0,0.01745241,0.99984769,0,0)"
       sodipodi:type="arc"
       sodipodi:cx="48.304813"
       sodipodi:cy="99.780228"
       sodipodi:rx="25.749001"
       sodipodi:ry="23.086794"
       sodipodi:start="1.2277405"
       sodipodi:end="5.1066501"
       sodipodi:arc-type="arc"
       d="M 56.965913,121.52178 A 25.749001,23.086794 0 0 1 27.361465,113.21104 25.749001,23.086794 0 0 1 28.155613,85.405907 25.749001,23.086794 0 0 1 58.195677,78.464638"
       sodipodi:open="true" /><path
       style="fill:#000000;fill-opacity:0;stroke:#000000;stroke-width:0.998393;stroke-linejoin:round;stroke-dasharray:none"
       id="path13"
       sodipodi:type="arc"
       sodipodi:cx="51.142639"
       sodipodi:cy="99.250542"
       sodipodi:rx="22.107279"
       sodipodi:ry="19.13966"
       sodipodi:start="1.3333996"
       sodipodi:end="5.0404927"
       sodipodi:arc-type="arc"
       d="m 56.341678,117.8534 a 22.107279,19.13966 0 0 1 -23.781351,-8.23431 22.107279,19.13966 0 0 1 1.161229,-22.151756 22.107279,19.13966 0 0 1 24.54512,-6.335449"
       sodipodi:open="true" /><path
       style="fill:#000000;fill-opacity:0;stroke:#000000;stroke-width:0.5;stroke-linejoin:round;stroke-dasharray:none"
       id="path14"
       sodipodi:type="arc"
       sodipodi:cx="49.578495"
       sodipodi:cy="103.78745"
       sodipodi:rx="20.659349"
       sodipodi:ry="17.993336"
       sodipodi:start="3.1359686"
       sodipodi:end="5.0238039"
       sodipodi:arc-type="arc"
       d="M 28.919472,103.88865 A 20.659349,17.993336 0 0 1 37.365407,89.274919 20.659349,17.993336 0 0 1 55.90864,86.659579"
       sodipodi:open="true" /><path
       style="fill:#000000;fill-opacity:0;stroke:#000000;stroke-width:0.780645;stroke-linejoin:round;stroke-dasharray:none"
       id="path15"
       sodipodi:type="arc"
       sodipodi:cx="50.355206"
       sodipodi:cy="99.174286"
       sodipodi:rx="49.819427"
       sodipodi:ry="45.460903"
       sodipodi:start="1.0834953"
       sodipodi:end="2.9593624"
       sodipodi:open="true"
       sodipodi:arc-type="arc"
       d="M 73.682793,139.34353 A 49.819427,45.460903 0 0 1 28.657101,140.09691 49.819427,45.460903 0 0 1 1.3606899,107.41286" /><path
       style="fill:#000000;fill-opacity:0;stroke:#000000;stroke-width:0.958165;stroke-linejoin:round;stroke-dasharray:none"
       id="path16"
       sodipodi:type="arc"
       sodipodi:cx="104.25517"
       sodipodi:cy="98.736038"
       sodipodi:rx="43.502888"
       sodipodi:ry="38.07732"
       sodipodi:start="1.7508575"
       sodipodi:end="5.8589785"
       sodipodi:open="true"
       sodipodi:arc-type="arc"
       d="M 96.464251,136.19775 A 43.502888,38.07732 0 0 1 60.76221,99.549365 43.502888,38.07732 0 0 1 94.643392,61.599758 43.502888,38.07732 0 0 1 143.9022,83.063489" /><path
       style="fill:#000000;fill-opacity:0;stroke:#000000;stroke-width:0.958165;stroke-linejoin:round;stroke-dasharray:none"
       id="path17"
       sodipodi:type="arc"
       sodipodi:cx="104.25517"
       sodipodi:cy="98.736038"
       sodipodi:rx="43.502888"
       sodipodi:ry="38.07732"
       sodipodi:start="0.39155812"
       sodipodi:end="1.0384287"
       sodipodi:arc-type="arc"
       d="m 144.46557,113.26745 a 43.502888,38.07732 0 0 1 -18.12943,18.2763"
       sodipodi:open="true" /><path
       style="fill:#000000;fill-opacity:0;stroke:#000000;stroke-width:0.497333;stroke-linejoin:round;stroke-dasharray:none"
       id="path18"
       sodipodi:type="arc"
       sodipodi:cx="104.62934"
       sodipodi:cy="97.753822"
       sodipodi:rx="26.488157"
       sodipodi:ry="23.26088"
       sodipodi:start="1.8299106"
       sodipodi:end="5.7595481"
       sodipodi:arc-type="arc"
       d="M 97.842426,120.23819 A 26.488157,23.26088 0 0 1 78.141227,97.795759 26.488157,23.26088 0 0 1 97.750149,75.29109 26.488157,23.26088 0 0 1 127.56825,86.122608"
       sodipodi:open="true" /><path
       style="fill:#000000;fill-opacity:0;stroke:#000000;stroke-width:0.760744;stroke-linejoin:round;stroke-dasharray:none"
       id="path19"
       sodipodi:type="arc"
       sodipodi:cx="104.58257"
       sodipodi:cy="98.081238"
       sodipodi:rx="21.478369"
       sodipodi:ry="19.747797"
       sodipodi:start="1.8497689"
       sodipodi:end="5.7236607"
       sodipodi:arc-type="arc"
       d="M 98.668116,117.06556 A 21.478369,19.747797 0 0 1 83.104207,98.091635 21.478369,19.747797 0 0 1 98.646377,79.10265 21.478369,19.747797 0 0 1 122.78565,87.599436"
       sodipodi:open="true" /><path
       style="fill:#000000;fill-opacity:0;stroke:#000000;stroke-width:0.623125;stroke-linejoin:round;stroke-dasharray:none"
       id="path20"
       sodipodi:type="arc"
       sodipodi:cx="103.88098"
       sodipodi:cy="99.110222"
       sodipodi:rx="21.219772"
       sodipodi:ry="15.139393"
       sodipodi:start="3.0677672"
       sodipodi:end="5.5552122"
       sodipodi:arc-type="arc"
       d="M 82.719009,100.22688 A 21.219772,15.139393 0 0 1 95.60004,85.171225 21.219772,15.139393 0 0 1 119.72206,89.037108"
       sodipodi:open="true" /><path
       style="fill:#000000;fill-opacity:0;stroke:#000000;stroke-width:1.33509;stroke-linejoin:round;stroke-dasharray:none"
       id="path21"
       sodipodi:type="arc"
       sodipodi:cx="105.37668"
       sodipodi:cy="99.25695"
       sodipodi:rx="51.445953"
       sodipodi:ry="44.576431"
       sodipodi:start="1.7205402"
       sodipodi:end="3.1484324"
       sodipodi:open="true"
       sodipodi:arc-type="arc"
       d="M 97.70172,143.33454 A 51.445953,44.576431 0 0 1 53.931928,98.952061" /><path
       style="fill:#000000;fill-opacity:0;stroke:#000000;stroke-width:1.31011;stroke-linejoin:round;stroke-dasharray:none"
       id="path22"
       sodipodi:type="arc"
       sodipodi:cx="107.89782"
       sodipodi:cy="96.402977"
       sodipodi:rx="46.177376"
       sodipodi:ry="47.821541"
       sodipodi:start="0.36163853"
       sodipodi:end="1.0735603"
       sodipodi:open="true"
       sodipodi:arc-type="arc"
       d="m 151.08837,113.32259 a 46.177376,47.821541 0 0 1 -21.16403,25.11095" /><path
       style="fill:#000000;fill-opacity:0;stroke:#000000;stroke-width:0.769292;stroke-linejoin:round;stroke-dasharray:none"
       id="path23"
       sodipodi:type="arc"
       sodipodi:cx="139.28447"
       sodipodi:cy="129.80867"
       sodipodi:rx="53.223381"
       sodipodi:ry="47.603809"
       sodipodi:start="0.1226872"
       sodipodi:end="2.9815881"
       sodipodi:open="true"
       sodipodi:arc-type="arc"
       d="m 192.10779,135.63441 a 53.223381,47.603809 0 0 1 -51.8303,41.76978 53.223381,47.603809 0 0 1 -53.536556,-40.01115"
       transform="matrix(1,0,0.07063314,0.99750237,0,0)" /></g></svg>
