<?xml version="1.0" encoding="UTF-8" standalone="no"?>
<!-- Created with Inkscape (http://www.inkscape.org/) -->

<svg
   width="203mm"
   height="237mm"
   viewBox="0 0 203 237"
   version="1.1"
   id="svg1"
   xml:space="preserve"
   inkscape:version="1.3.1 (91b66b0783, 2023-11-16)"
   sodipodi:docname="spiral.svg"
   xmlns:inkscape="http://www.inkscape.org/namespaces/inkscape"
   xmlns:sodipodi="http://sodipodi.sourceforge.net/DTD/sodipodi-0.dtd"
   xmlns="http://www.w3.org/2000/svg"
   xmlns:svg="http://www.w3.org/2000/svg"><sodipodi:namedview
     id="namedview1"
     pagecolor="#ffffff"
     bordercolor="#666666"
     borderopacity="1.0"
     inkscape:showpageshadow="2"
     inkscape:pageopacity="0.0"
     inkscape:pagecheckerboard="0"
     inkscape:deskcolor="#d1d1d1"
     inkscape:document-units="mm"
     inkscape:zoom="1.7890873"
     inkscape:cx="285.34102"
     inkscape:cy="439.33015"
     inkscape:window-width="3360"
     inkscape:window-height="1780"
     inkscape:window-x="-12"
     inkscape:window-y="681"
     inkscape:window-maximized="1"
     inkscape:current-layer="layer3" /><defs
     id="defs1" /><g
     inkscape:groupmode="layer"
     id="layer3"
     inkscape:label="Layer 2"><path
       style="fill:none;stroke:#000000;stroke-width:0.264583px;stroke-linecap:butt;stroke-linejoin:miter;stroke-opacity:1"
       d="m 96.59402,39.771367 c 0,0 0.387659,8.222965 -2.690789,12.177884 M 77.302879,68.623547 c -7.024648,7.616197 -51.043676,26.266146 -66.080948,11.19915 l -0.08183,-3.564786 c 0,0 10.454312,-10.998785 13.87905,-21.717428 0,0 6.300198,-7.953601 39.344991,-5.7053 L 83.919134,38.064254 72.311627,36.600246 c 0,0 -22.430721,3.660024 -22.535293,2.300586 0,0 -4.812088,-2.688869 -3.032593,-3.660026 18.574576,-10.137047 32.051358,-12.33951 32.051358,-12.33951 5.790523,-0.328036 2.980647,-0.697847 16.77114,1.317117 0,0 2.330999,-8.029681 27.619731,-0.06225 0,0 31.11021,8.104339 50.92663,32.835648 0,0 17.20211,22.587581 19.65956,44.129439 0,0 3.03258,27.55475 0.52285,31.05792 0,0 -10.03892,33.09708 -11.65979,32.73108 0,0 -18.40469,25.98617 -24.78359,27.55475 -3.29403,4.86261 -48.10318,26.35218 -56.52124,20.44385 0,0 -17.306686,0.83658 -15.162957,-3.76459 0,0 -18.195549,2.30058 -25.724742,-3.7646 -4.705746,-4.96718 -25.097312,-13.59437 -24.888168,-16.41782 0,0 -3.294022,0.52286 0.05229,-8.31348 0,0 -14.640097,-3.81689 -17.934119,-12.28723 0.156858,-7.21548 -2.509731,-9.35921 -10.5617852,-20.80986 0,0 -3.5031667,-3.92145 6.9017602,-12.65322 0,0 -10.1957822,-3.34632 -11.607506,-10.45722 0,0 1.9868704,-5.17632 3.4508802,-12.33951 -0.052286,-6.11747 -2.3005869,-12.02579 -2.3005869,-12.02579 0,0 22.0647197,-28.286763 92.9646237,-9.620638 0,0 11.53357,-7.336214 14.81335,-12.843343 1.00807,-1.692668 -29.975036,-7.459416 -33.89405,-8.901318"
       id="path1"
       sodipodi:nodetypes="ccccccccccsccccccccccccccccccccsc" /><path
       style="fill:none;stroke:#000000;stroke-width:0.264583px;stroke-linecap:butt;stroke-linejoin:miter;stroke-opacity:1"
       d="m 96.544277,39.794376 c 0,0 11.146253,2.311121 16.071923,4.017242 1.14901,0.397988 5.73064,9.578055 6.28521,15.084507 0.0877,0.8713 -8.48504,-4.676936 -24.99296,-6.987675"
       id="path2"
       sodipodi:nodetypes="cssc" /><path
       style="fill:none;stroke:#000000;stroke-width:0.264583px;stroke-linecap:butt;stroke-linejoin:miter;stroke-opacity:1"
       d="M 116.31338,29.614436 C 138.478,35.529929 155.79929,47.28697 155.79929,47.28697 133.02464,25.824822 116.33187,29.503521 116.33187,29.503521"
       id="path3"
       sodipodi:nodetypes="ccc" /><path
       style="fill:none;stroke:#000000;stroke-width:0.264583px;stroke-linecap:butt;stroke-linejoin:miter;stroke-opacity:1"
       d="m 149.8838,60.079225 c 0,0 10.97342,9.737115 20.0757,14.455987 0.32868,0.170399 -0.3617,13.614572 -1.22007,13.383802 -0.97288,-0.261557 -14.82731,-12.881871 -18.85563,-14.49296 -0.91643,-0.366519 -0.33275,-13.420772 -0.33275,-13.420772"
       id="path4"
       sodipodi:nodetypes="csssc" /><path
       style="fill:none;stroke:#000000;stroke-width:0.264583px;stroke-linecap:butt;stroke-linejoin:miter;stroke-opacity:1"
       d="m 187.00538,99.21708 c 0,0 3.27706,7.59773 4.10201,11.62447 0.19384,0.94618 -1.46816,9.86158 -2.36619,10.01936 -0.94415,0.16588 -4.39965,-10.79577 -4.39965,-10.79577 l 2.498,-10.842103"
       id="path5"
       sodipodi:nodetypes="csscc" /><path
       style="fill:none;stroke:#000000;stroke-width:0.264583px;stroke-linecap:butt;stroke-linejoin:miter;stroke-opacity:1"
       d="m 141.82394,91.468309 c 0,0 12.08424,7.807045 18.33803,15.565141 0.30667,0.38044 -7.25117,8.53014 -10.22403,12.7064 -0.25925,0.36419 -15.12673,-13.7762 -18.54005,-14.99865 -1.95917,-0.70166 10.5,-12.829229 10.5,-12.829229"
       id="path6"
       sodipodi:nodetypes="csssc" /><path
       style="fill:none;stroke:#000000;stroke-width:0.264583px;stroke-linecap:butt;stroke-linejoin:miter;stroke-opacity:1"
       d="m 174.42631,129.61715 c 0.74682,-0.81905 3.19934,14.65941 2.98031,14.95382 -3.73261,5.01733 -12.53918,14.86599 -12.86346,14.20332 -0.31605,-0.64585 -1.41514,-14.85539 -2.03807,-16.60848 -0.63066,-1.77483 7.77532,-8.00178 11.92122,-12.54866 z"
       id="path7"
       sodipodi:nodetypes="sssss" /><path
       style="fill:none;stroke:#000000;stroke-width:0.264583px;stroke-linecap:butt;stroke-linejoin:miter;stroke-opacity:1"
       d="m 82.559696,131.23802 c 0,0 20.232724,-8.01861 26.509034,-11.55522 0.59319,-0.33425 14.58358,7.54731 20.44385,15.31982 0.55612,0.73759 -17.08852,7.87287 -21.33271,11.18922 -0.45942,0.35899 -9.672926,-10.61408 -25.358745,-14.53553"
       id="path8"
       sodipodi:nodetypes="csssc" /><path
       style="fill:none;stroke:#000000;stroke-width:0.264583px;stroke-linecap:butt;stroke-linejoin:miter;stroke-opacity:1"
       d="m 28.077617,156.64905 c 0,0 12.616538,-5.3976 19.293557,-5.38547 10.680271,0.0194 18.614748,1.41128 26.352177,4.54889 2.640479,1.07074 -17.195744,1.74554 -23.058154,3.92146 -1.272245,0.47221 -23.162728,-3.34631 -23.162728,-3.34631"
       id="path9"
       sodipodi:nodetypes="csssc" /><path
       style="fill:none;stroke:#000000;stroke-width:0.264583px;stroke-linecap:butt;stroke-linejoin:miter;stroke-opacity:1"
       d="m 113.90519,204.90909 c 38.53483,-12.9408 53.98536,-28.96648 53.98536,-28.96648 -15.33517,19.30356 -36.43942,30.23409 -53.95922,29.09719"
       id="path10"
       sodipodi:nodetypes="ccc" /><path
       style="fill:none;stroke:#000000;stroke-width:0.264583px;stroke-linecap:butt;stroke-linejoin:miter;stroke-opacity:1"
       d="m 117.32993,169.92971 c 0,0 23.04708,-11.68411 23.16273,-10.82322 0.95947,7.14225 -3.2221,17.1632 -10.39705,21.9654 -6.28651,4.20758 -26.04634,9.61538 -26.04634,9.61538 0,0 -40.952111,7.18518 -38.945236,4.34763 1.573381,-2.22463 22.043513,-1.33696 31.856624,-3.78779 3.924202,-0.98007 -3.924464,-9.3652 -12.361805,-11.01705 -2.400425,-0.46995 8.870295,-0.95124 12.182652,-4.23517 1.648041,-1.6339 4.110935,11.0059 6.588045,12.07808 0,0 10.65303,0.71916 13.64775,-17.95161"
       id="path11"
       sodipodi:nodetypes="csscsssscc" /><path
       style="fill:none;stroke:#000000;stroke-width:0.264583px;stroke-linecap:butt;stroke-linejoin:miter;stroke-opacity:1"
       d="m 28.985916,109.43662 c 8.825677,-2.71024 24.589237,-3.39006 24.401407,-2.58803 -0.536492,2.2908 -24.382828,2.55586 -24.382828,2.55586"
       id="path12"
       sodipodi:nodetypes="csc" /></g></svg>
